<svg height="24" viewBox="0 0 24 24" width="24" xmlns="http://www.w3.org/2000/svg"><path d="m20.247634 1c1.0125221 0 1.8333334.82081129 1.8333334 1.83333333s-.8208113 1.83333334-1.8333334 1.83333334c-.3158442 0-.6130339-.07986936-.8724738-.22051281l-3.0249251 3.47961717c.1346337.25513483.2108509.5458717.2108509.85441003 0 1.01252204-.8208113 1.83333334-1.8333334 1.83333334-.9820883 0-1.7838173-.7722101-1.8311257-1.74256896l-2.2033918-.75849737c-.336256.40778098-.84535009.66773299-1.41515923.66773299-.32712483 0-.63423886-.08567643-.90012689-.2358141l-2.87560465 2.41277624c.05416355.1730906.08335496.3572185.08335496.5481644 0 1.012522-.8208113 1.8333333-1.83333334 1.8333333s-1.83333333-.8208113-1.83333333-1.8333333c0-1.0125221.82081129-1.83333335 1.83333333-1.83333335.33090488 0 .64133381.08766791.90932763.24104456l2.86960725-2.40787374c-.05621505-.1760311-.0865583-.3636207-.0865583-.55829735 0-1.01252204.8208113-1.83333333 1.83333334-1.83333333.97577423 0 1.77350093.76231258 1.83011983 1.7238777l2.2160025.76325559c.336304-.39976002.8402621-.65379996 1.4035544-.65379996.2130474 0 .4176071.03634016.6078186.10315996l3.1693503-3.64581344c-.0588143-.17965899-.0906208-.37154554-.0906208-.57086091 0-1.01252204.8208113-1.83333333 1.8333333-1.83333333z" opacity=".48"/><path d="m21.1666667 9.60855714c.506261 0 .9166666.41040566.9166666.91666666v10.7540685c0 .2761423-.2238576.5-.5.5h-2.6666666c-.2761424 0-.5-.2238577-.5-.5v-10.7540685c0-.506261.4104056-.91666666.9166666-.91666666zm-5.5 6.42549146c.506261 0 .9166666.4104057.9166666.9166667v4.328577c0 .2761423-.2238576.5-.5.5h-2.6666666c-.2761424 0-.5-.2238577-.5-.5v-4.328577c0-.506261.4104056-.9166667.9166666-.9166667zm-5.5-1.8405511c.506261 0 .9166666.4104057.9166666.9166667v6.1691281c0 .2761423-.2238576.5-.5.5h-2.66666663c-.27614238 0-.5-.2238577-.5-.5v-6.1691281c0-.506261.41040564-.9166667.91666666-.9166667zm-5.50000003 4.7135227c.50626102 0 .91666666.4104057.91666666.9166667v1.4556054c0 .2761423-.22385762.5-.5.5h-2.66666666c-.27614238 0-.5-.2238577-.5-.5v-1.4556054c0-.506261.41040564-.9166667.91666666-.9166667z"/></svg>