<svg width="24" height="24" viewBox="0 0 24 24" fill="none" xmlns="http://www.w3.org/2000/svg">
<path d="M21.5367 20.5812H2.45436C1.92714 20.5812 1.5 21.0083 1.5 21.536C1.5 22.0628 1.92714 22.4899 2.45436 22.4899H21.5362C22.0635 22.4899 22.4906 22.0628 22.4906 21.536C22.4902 21.0083 22.063 20.5812 21.5367 20.5812Z" fill="#637381"/>
<path d="M3.64772 18.1001C3.1205 18.1001 2.69336 18.5273 2.69336 19.0545C2.69336 19.5817 3.1205 20.0093 3.64772 20.0093H20.3446C20.8718 20.0093 21.2989 19.5817 21.2989 19.0545C21.2989 18.5273 20.8718 18.1001 20.3446 18.1001H20.1064V9.51266H20.3446C20.6086 9.51266 20.8213 9.29909 20.8213 9.03592C20.8213 8.77276 20.6077 8.55919 20.3446 8.55919H3.64772C3.38411 8.55919 3.17099 8.77276 3.17099 9.03592C3.17099 9.29909 3.38456 9.51266 3.64772 9.51266H3.88631V18.0997H3.64772V18.1001ZM18.1977 9.51266V18.0997H15.3355V9.51266H18.1977ZM13.4268 9.51266V18.0997H10.5646V9.51266H13.4268ZM5.79414 9.51266H8.65633V18.0997H5.79414V9.51266Z" fill="#637381"/>
<path opacity="0.48" d="M2.45438 7.70134H21.5363C21.5394 7.70134 21.543 7.70134 21.5456 7.70134C22.0733 7.70134 22.5 7.2742 22.5 6.74698C22.5 6.32788 22.2301 5.97268 21.8553 5.844L12.3876 1.58377C12.1387 1.47208 11.8541 1.47208 11.6048 1.58377L2.06298 5.87706C1.65238 6.06204 1.42674 6.50794 1.52146 6.94759C1.61574 7.38724 2.00445 7.70134 2.45438 7.70134Z" fill="#637381"/>
</svg>
