<svg height="24" viewBox="0 0 24 24" width="24" xmlns="http://www.w3.org/2000/svg"><path d="m14.984127 0c2.7619047 0 5.015873 2.25396825 5.015873 5.01587302v9.96825398c0 2.7619047-2.2539683 5.015873-5.015873 5.015873h-9.984127c-2.74603175 0-5-2.2539683-5-5v-9.98412698c0-2.76190477 2.25396825-5.01587302 5-5.01587302zm-4.5079365 3.80952381h-2.76190479c-2.17460317 0-3.9047619 1.73015873-3.9047619 3.88888889v4.6031746c0 2.1587302 1.73015873 3.8888889 3.9047619 3.8888889h4.53968259c2.1746031 0 3.9523809-1.7460318 3.9682539-3.9047619v-3.15873017l-.031746-.15873016-.1111111-.22222222-.1746032-.14285715c-.2380952-.17460317-1.3968254.01587302-1.7142857-.26984127-.2222222-.2063492-.2539683-.57142857-.3174603-1.06349206-.1111111-.96825397-.2063492-1.01587302-.3492064-1.33333333-.5396825-1.15873016-2.031746-2.12698413-3.047619-2.12698413zm1.7460317 7.61904759c.4126984 0 .7460318.3809524.7460318.7936508s-.3333334.7936508-.7460318.7936508h-4.46031744c-.42857143 0-.76190476-.3809524-.76190476-.7936508s.34920635-.7936508.76190476-.7936508zm-2.26984125-4.44444442c.42857145 0 .76190475.30158731.76190475.71428572s-.3492063.71428571-.76190475.71428571h-2.19047619c-.41269841 0-.76190476-.3015873-.76190476-.71428571s.34920635-.71428572.76190476-.71428572z" transform="translate(2 2)"/></svg>