<svg height="24" viewBox="0 0 24 24" width="24" xmlns="http://www.w3.org/2000/svg"><g transform="translate(.5 2.5)"><path d="m8.3418125.28845833c-4.72554167 0-8.3418125 3.20658334-8.3418125 6.70210417 0 3.4955208 3.12225 5.5209583 3.12225 5.5209583l-.5074375 1.923375c-.06708333.2534792.20460417.462875.4326875.3335l2.28083333-1.2923125c1.00864584.3210417 3.14908334.4235834 3.35752084.4331667-.1495-.5184583-.22329167-1.02925-.22329167-1.5060208 0-2.69770837 2.348875-6.49750003 7.5703542-6.49750003.1188333 0 .2376666.002875.3565.00766666-.6947917-3.32541666-4.1476667-5.6249375-8.0476042-5.6249375z"/><path d="m23 11.9810833c0-3.06187497-3.5923125-5.3038958-6.9675625-5.3038958-4.7734583 0-6.79889583 3.4476042-6.79889583 5.7260417 0 2.2832291 2.02495833 5.7260416 6.79889583 5.7260416 1.0560833 0 1.9851875-.1514166 2.7930625-.41975l1.7954375 1.1394584c.1418333.0900833.3210417-.0368959.2831875-.2007709l-.4072917-1.768125c1.69625-1.181625 2.5031667-3.0441458 2.5031667-4.899z" opacity=".48"/></g></svg>