<svg height="24" viewBox="0 0 24 24" width="24" xmlns="http://www.w3.org/2000/svg"><g transform="translate(1.5 1.5)"><path d="m18.9 3.15h-16.8c-1.15931815.00115758-2.09884242.94068185-2.1 2.1v12.95c.00115758 1.1593181.94068185 2.0988424 2.1 2.1h16.8c1.1593181-.0011576 2.0988424-.9406819 2.1-2.1v-12.95c-.0011576-1.15931815-.9406819-2.09884242-2.1-2.1zm0 16.45h-16.8c-.77319865 0-1.4-.6268014-1.4-1.4v-10.5h19.6v10.5c0 .7731986-.6268014 1.4-1.4 1.4zm-2.45-17.15v-1.75c0-.38659932-.3134007-.7-.7-.7s-.7.31340068-.7.7v1.75zm-10.5 0v-1.75c0-.38659932-.31340068-.7-.7-.7s-.7.31340068-.7.7v1.75z"/><path d="m5.99840724 14.441644c.55228475 0 1 .4477153 1 1v1.6c0 .5522848-.44771525 1-1 1h-2.2c-.55228475 0-1-.4477152-1-1v-1.6c0-.5522847.44771525-1 1-1zm5.60159276 0c.5522847 0 1 .4477153 1 1v1.6c0 .5522848-.4477153 1-1 1h-2.2c-.55228475 0-1-.4477152-1-1v-1.6c0-.5522847.44771525-1 1-1zm-5.60159276-5.0001284c.55228475 0 1 .44771525 1 1v1.6c0 .5522848-.44771525 1-1 1h-2.2c-.55228475 0-1-.4477152-1-1v-1.6c0-.55228475.44771525-1 1-1zm5.60159276 0c.5522847 0 1 .44771525 1 1v1.6c0 .5522848-.4477153 1-1 1h-2.2c-.55228475 0-1-.4477152-1-1v-1.6c0-.55228475.44771525-1 1-1zm5.6015928 0c.5522847 0 1 .44771525 1 1v1.6c0 .5522848-.4477153 1-1 1h-2.2c-.5522848 0-1-.4477152-1-1v-1.6c0-.55228475.4477152-1 1-1z" opacity=".48"/></g></svg>