<svg height="24" viewBox="0 0 24 24" width="24" xmlns="http://www.w3.org/2000/svg"><g transform="translate(2 2)"><path d="m9.58985382 1.32162476c1.66180188 0 3.06430158 1.12239456 3.49720258 2.64777104h-6.99440518c.432901-1.52537648 1.83540001-2.64777104 3.4972026-2.64777104zm4.62891648-1.32162476c.9093636 0 1.6555835.7429914 1.6555835 1.65235392 0 .90937489-.7462199 1.6529999-1.6555835 1.6529999-.909364 0-1.6529999-.74362501-1.6529999-1.6529999 0-.90936252.7436359-1.65235392 1.6529999-1.65235392z" opacity=".48"/><path d="m7.60483293 15.8737079c.90936397 0 1.6529999.7436373 1.6529999 1.6529999 0 .9093749-.74362997 1.6549376-1.6529999 1.6549376s-1.65235399-.7455627-1.65235399-1.6549376c0-.9093626.74299001-1.6529999 1.65235399-1.6529999zm6.61393737 0c.9093636 0 1.6555835.7436373 1.6555835 1.6529999 0 .9093749-.7462136 1.6549376-1.6555835 1.6549376-.90937 0-1.6529999-.7455627-1.6529999-1.6549376 0-.9093626.7436349-1.6529999 1.6529999-1.6529999zm-10.58074958-13.22722875c.47021948.00126272.87961059.33725114.97151692.79840103l.23706567 1.18597394h13.34220869c.6357812 0 1.1062464.60903974.9644116 1.2234396l-1.9850212 8.59895818c-.1036535.4490251-.5105252.7589977-.9644112.7589977h-10.58333325c-.47083827 0-.88484536-.3341221-.97216282-.8009847l-1.82805386-9.78234852h-1.82869973c-.30322176 0-.57131938-.12557224-.74220274-.31781022-.17088343-.19224988-.2493388-.43483146-.2493388-.67373135 0-.2388999.07845541-.48148147.2493388-.67373136.17088336-.19223764.43898098-.3171643.74220274-.3171643z"/></g></svg>