<svg height="24" viewBox="0 0 24 24" width="24" xmlns="http://www.w3.org/2000/svg"><g transform="translate(2 4)"><path d="m18.38 4.57-1.23 1.85c1.2049 2.40314304 1.1222508 5.2507848-.22 7.58h-13.86c-1.76350331-3.059309-1.31261601-6.91298595 1.10947843-9.48257235s6.24242627-3.24722187 9.40052157-1.66742765l1.85-1.23c-3.8761922-2.48556317-8.94860517-2.00294347-12.28650726 1.16901179-3.3379021 3.17195526-4.07833512 8.21319061-1.79349274 12.21098821.35510459.6150891 1.00977788.9957131 1.72 1.0000158h13.85c.7173695.0028322 1.3813181-.3787474 1.74-1.0000158 1.8786438-3.25433 1.7743473-7.28712667-.27-10.44z"/><path d="m8.59 11.41c.37513651.3755541.8841815.5865733 1.415.5865733s1.0398635-.2110192 1.415-.5865733l5.66-8.49-8.49 5.66c-.37555409.37513651-.58657331.8841815-.58657331 1.415s.21101922 1.0398635.58657331 1.415z" opacity=".48"/></g></svg>