<svg width="25" height="24" viewBox="0 0 25 24" fill="none" xmlns="http://www.w3.org/2000/svg">
<path opacity="0.48" d="M17.7231 7.11493C18.4822 7.12263 19.5376 7.12593 20.4328 7.12263C20.8913 7.12153 21.1244 6.56823 20.8064 6.23493C19.6563 5.02713 17.5989 2.86563 16.4216 1.62923C16.096 1.28713 15.5264 1.52253 15.5264 1.99663V4.89623C15.5264 6.11283 16.5185 7.11493 17.7231 7.11493Z" fill="#637381"/>
<path fill-rule="evenodd" clip-rule="evenodd" d="M14.6049 16.8291H8.68011C8.23358 16.8291 7.86328 16.4551 7.86328 16.0041C7.86328 15.5531 8.23358 15.1901 8.68011 15.1901H14.6049C15.0514 15.1901 15.4217 15.5531 15.4217 16.0041C15.4217 16.4551 15.0514 16.8291 14.6049 16.8291ZM8.68011 9.69006H12.3613C12.8078 9.69006 13.1781 10.0641 13.1781 10.5151C13.1781 10.9661 12.8078 11.3291 12.3613 11.3291H8.68011C8.23358 11.3291 7.86328 10.9661 7.86328 10.5151C7.86328 10.0641 8.23358 9.69006 8.68011 9.69006ZM20.9208 8.722C20.4525 8.722 19.8971 8.733 19.5595 8.733C19.0585 8.733 18.405 8.722 17.5773 8.722C15.5842 8.711 13.9397 7.061 13.9397 5.048V1.506C13.9397 1.231 13.7218 1 13.4387 1H7.62282C4.91094 1 2.71094 3.233 2.71094 5.961V17.819C2.71094 20.679 5.01985 23 7.85153 23H16.5208C19.2218 23 21.4109 20.789 21.4109 18.061V9.217C21.4109 8.942 21.1931 8.722 20.9208 8.722Z" fill="#637381"/>
</svg>
