<?xml version="1.0" encoding="UTF-8"?>
<svg width="24px" height="24px" viewBox="0 0 24 24" version="1.1" xmlns="http://www.w3.org/2000/svg" xmlns:xlink="http://www.w3.org/1999/xlink">
    <title>ic_kanban</title>
    <g id="ic_kanban" stroke="none" stroke-width="1" fill="none" fill-rule="evenodd">
        <path d="M20,3 C21.1045695,3 22,3.8954305 22,5 L22,15 C22,16.1045695 21.1045695,17 20,17 L4,17 C2.8954305,17 2,16.1045695 2,15 L2,5 C2,3.8954305 2.8954305,3 4,3 L20,3 Z M11.5,6 L6.5,6 C5.67157288,6 5,6.67157288 5,7.5 L5,7.5 L5,9.5 C5,10.3284271 5.67157288,11 6.5,11 L6.5,11 L11.5,11 C12.3284271,11 13,10.3284271 13,9.5 L13,9.5 L13,7.5 C13,6.67157288 12.3284271,6 11.5,6 L11.5,6 Z" id="Combined-Shape" fill="#000000"></path>
        <path d="M8,21 L16,21 M12,17 L12,21" id="Combined-Shape" stroke="#000000" stroke-width="2" opacity="0.48" stroke-linecap="round" stroke-linejoin="round"></path>
    </g>
</svg>