<?xml version="1.0" encoding="UTF-8"?>
<svg width="24px" height="24px" viewBox="0 0 24 24" version="1.1" xmlns="http://www.w3.org/2000/svg" xmlns:xlink="http://www.w3.org/1999/xlink">
    <title>ic_menu_item</title>
    <g id="ic_menu_item" stroke="none" stroke-width="1" fill="none" fill-rule="evenodd">
        <path d="M15.2798371,4.5 L4.72019944,4.5 C3.77169293,4.5 3,5.06056797 3,5.75042433 C3,6.43943203 3.77169293,7 4.72019944,7 L15.2798006,7 C16.2283071,7 17,6.43943203 17,5.75042433 C17,5.06054145 16.2283436,4.5 15.2798371,4.5 Z" id="Path" fill="#000000" fill-rule="nonzero" opacity="0.48"></path>
        <path d="M19.2798371,10.75 L8.72019944,10.75 C7.77169293,10.75 7,11.310568 7,12.0004243 C7,12.689432 7.77169293,13.25 8.72019944,13.25 L19.2798006,13.25 C20.2283071,13.25 21,12.689432 21,12.0004243 C21,11.3105414 20.2283436,10.75 19.2798371,10.75 L19.2798371,10.75 Z" id="Path" fill="#000000" fill-rule="nonzero"></path>
        <path d="M15.2798371,17 L4.72019944,17 C3.77169293,17 3,17.560568 3,18.2504243 C3,18.939432 3.77169293,19.5 4.72019944,19.5 L15.2798006,19.5 C16.2283071,19.5 17,18.939432 17,18.2504243 C17,17.560568 16.2283436,17 15.2798371,17 Z" id="Path" fill="#000000" fill-rule="nonzero"></path>
    </g>
</svg>