<svg height="240" viewBox="0 0 327 240" width="327" xmlns="http://www.w3.org/2000/svg" xmlns:xlink="http://www.w3.org/1999/xlink"><defs><linearGradient id="a" x1="19.495903%" x2="77.479035%" y1="70.897978%" y2="18.101149%"><stop offset="0" stop-color="#919eab"/><stop offset="1" stop-color="#919eab" stop-opacity="0"/></linearGradient><filter id="b" height="187.1%" width="187.6%" x="-43.8%" y="-43.5%"><feOffset dx="12" dy="12" in="SourceAlpha" result="shadowOffsetOuter1"/><feGaussianBlur in="shadowOffsetOuter1" result="shadowBlurOuter1" stdDeviation="12"/><feColorMatrix in="shadowBlurOuter1" result="shadowMatrixOuter1" type="matrix" values="0 0 0 0 0.270588235   0 0 0 0 0.309803922   0 0 0 0 0.356862745  0 0 0 0.24 0"/><feMerge><feMergeNode in="shadowMatrixOuter1"/><feMergeNode in="SourceGraphic"/></feMerge></filter><path id="c" d="m82.96 109.03c-.88.65-1.92.97-2.96.97s-2.08-.32-2.96-.97l-77.04-49.03v90c0 5.52 4.48 10 10 10h140c5.52 0 10-4.48 10-10v-90z"/></defs><g fill="none" fill-rule="evenodd"><path d="m0 132.520479c0 27.638106 10.1815403 52.823212 26.9359737 71.857174 19.2210583 21.843031 47.0935619 35.576174 78.1622963 35.622347 13.578251.01963 26.561505-2.591298 38.487224-7.357648 6.166205-2.465429 13.067742-2.182475 19.03991.738459 7.005358 3.42177 14.84987 5.340301 23.13329 5.340301 3.421771 0 6.772658-.329748 10.013996-.95561 9.252171-1.780344 17.671632-5.993216 24.586057-11.96011 4.345413-3.751518 9.910892-5.637147 15.598807-5.630567h.096661c18.795037 0 36.2533-5.821396 50.748033-15.797172 12.958194-8.906839 23.539979-21.130893 30.590445-35.483318 6.146872-12.507009 9.607307-26.635702 9.607307-41.589131 0-51.2870702-40.721149-92.8696204-90.945785-92.8696204-5.120127 0-10.136433.4416131-15.030302 1.2656163-12.958194-21.4211586-36.163084-35.7011999-62.634373-35.7011999-11.176066 0-21.771456 2.54512435-31.255611 7.10748458-9.019469 4.32473732-17.038685 10.47003182-23.598691 17.95917532-22.274804.3626492-42.871301 7.7933009-59.7288387 20.1942932-26.5357289 19.509208-43.8063993 51.3272837-43.8063993 87.2595259z" fill="url(#a)" opacity=".2"/><g fill-rule="nonzero" transform="translate(51 12)"><path d="m139.604706 17.0504412c-2.184706 0-4.368824-.8311765-6.031177-2.4941177-3.325882-3.3258823-3.325882-8.73705877 0-12.06235289 3.324118-3.32470589 8.736471-3.32588236 12.061765 0 3.325882 3.32588235 3.325882 8.73705879 0 12.06235289-1.662353 1.6629412-3.84647 2.4941177-6.030588 2.4941177zm0-11.17117647c-.677647 0-1.355882.25764705-1.872353.77411764-1.031765 1.03176471-1.031765 2.71117647 0 3.74352943 1.032941 1.0317647 2.710588 1.0323529 3.743529 0 1.031765-1.03176472 1.031765-2.71117649 0-3.74352943-.515882-.51588235-1.194117-.77411764-1.871176-.77411764z" fill="#c4cdd5" opacity=".545118"/><path d="m72.5517647 216.193971c-2.1841176 0-4.3688235-.831765-6.0311765-2.494118-3.3258823-3.325882-3.3258823-8.737059 0-12.062353 3.3247059-3.325294 8.7376471-3.325294 12.062353 0 3.3258823 3.325882 3.3258823 8.737059 0 12.062353-1.662353 1.662941-3.8470588 2.494118-6.0311765 2.494118zm0-11.171177c-.6776471 0-1.3558823.257647-1.8723529.774118-1.0317647 1.031764-1.0317647 2.711176 0 3.743529 1.0329411 1.032353 2.7111764 1.032353 3.7441176 0 1.0317647-1.031765 1.0317647-2.711176 0-3.743529-.5158823-.515883-1.1941176-.774118-1.8717647-.774118z" fill="#c4cdd5" opacity=".545118"/><path d="m221.674118 176.021618c-.752353 0-1.505883-.287059-2.079412-.861177l-3.508824-3.508235-3.508823 3.508235c-1.147647 1.148235-3.011177 1.148235-4.158824 0-1.148823-1.148823-1.148823-3.011176 0-4.159412l5.588236-5.588235c1.147647-1.148235 3.011176-1.148235 4.158823 0l5.588235 5.588235c1.148824 1.148824 1.148824 3.011177 0 4.159412-.573529.57353-1.327058.861177-2.079411.861177z" fill="#dfe3e8"/><path d="m14.2258824 164.815735c-.752353 0-1.5058824-.287059-2.0794118-.861176l-3.50882354-3.508235-3.50882353 3.508235c-1.14764706 1.148235-3.01117647 1.148235-4.15882353 0-1.14882353-1.148824-1.14882353-3.011177 0-4.159412l5.58823529-5.588235c1.14764706-1.148236 3.01117647-1.148236 4.15882351 0l5.5882353 5.588235c1.1488235 1.148824 1.1488235 3.011177 0 4.159412-.5741176.573529-1.3270588.861176-2.0794117.861176z" fill="#d5dbe0"/></g><g filter="url(#b)" transform="translate(84 40)"><g fill-rule="nonzero"><path d="m0 60 77.04 49.03c.88.65 1.92.97 2.96.97s2.08-.32 2.96-.97l77.04-49.03-77-59c-1.78-1.33-4.22-1.33-6 0z" fill="#c4cdd5" stroke="#919eab" stroke-width="1.2"/><path d="m130 0h-100c-5.51 0-10 4.49-10 10v110c0 2.76 2.24 5 5 5h110c2.76 0 5-2.24 5-5v-110c0-5.51-4.48-10-10-10z" fill="#919eab" opacity=".32"/><path d="m85 60c2.76 0 5 2.24 5 5s-2.24 5-5 5h-40c-2.76 0-5-2.24-5-5s2.24-5 5-5zm30-20c2.76 0 5 2.24 5 5s-2.24 5-5 5h-70c-2.76 0-5-2.24-5-5s2.24-5 5-5zm0-20c2.76 0 5 2.24 5 5s-2.24 5-5 5h-70c-2.76 0-5-2.24-5-5s2.24-5 5-5z" stroke="#919eab" stroke-dasharray="2 2" stroke-width="1.2"/></g><use fill="#dfe3e8" xlink:href="#c"/><g stroke="#919eab" stroke-opacity=".48" stroke-width="1.5"><use fill="#c4cdd5" fill-opacity=".72" xlink:href="#c"/><path d="m150 160h-140c-5.61 0-10-4.39-10-10 0-1.59.76-3.09 2.04-4.03l75-50c.88-.65 1.92-.97 2.96-.97s2.08.32 2.96.97l75 50c1.28.94 2.04 2.44 2.04 4.03 0 5.61-4.39 10-10 10z" fill="#dfe3e8"/></g></g></g></svg>