<svg height="240" viewBox="0 0 327 240" width="327" xmlns="http://www.w3.org/2000/svg" xmlns:xlink="http://www.w3.org/1999/xlink"><linearGradient id="a" x1="19.495903%" x2="77.479035%" y1="70.897978%" y2="18.101149%"><stop offset="0" stop-color="#919eab"/><stop offset="1" stop-color="#919eab" stop-opacity="0"/></linearGradient><filter id="b" height="193.3%" width="190.3%" x="-45.2%" y="-46.7%"><feOffset dx="12" dy="12" in="SourceAlpha" result="shadowOffsetOuter1"/><feGaussianBlur in="shadowOffsetOuter1" result="shadowBlurOuter1" stdDeviation="12"/><feColorMatrix in="shadowBlurOuter1" result="shadowMatrixOuter1" type="matrix" values="0 0 0 0 0.270588235   0 0 0 0 0.309803922   0 0 0 0 0.356862745  0 0 0 0.24 0"/><feMerge><feMergeNode in="shadowMatrixOuter1"/><feMergeNode in="SourceGraphic"/></feMerge></filter><g fill="none" fill-rule="evenodd"><path d="m0 132.520479c0 27.638106 10.1815403 52.823212 26.9359737 71.857174 19.2210583 21.843031 47.0935619 35.576174 78.1622963 35.622347 13.578251.01963 26.561505-2.591298 38.487224-7.357648 6.166205-2.465429 13.067742-2.182475 19.03991.738459 7.005358 3.42177 14.84987 5.340301 23.13329 5.340301 3.421771 0 6.772658-.329748 10.013996-.95561 9.252171-1.780344 17.671632-5.993216 24.586057-11.96011 4.345413-3.751518 9.910892-5.637147 15.598807-5.630567h.096661c18.795037 0 36.2533-5.821396 50.748033-15.797172 12.958194-8.906839 23.539979-21.130893 30.590445-35.483318 6.146872-12.507009 9.607307-26.635702 9.607307-41.589131 0-51.2870702-40.721149-92.8696204-90.945785-92.8696204-5.120127 0-10.136433.4416131-15.030302 1.2656163-12.958194-21.4211586-36.163084-35.7011999-62.634373-35.7011999-11.176066 0-21.771456 2.54512435-31.255611 7.10748458-9.019469 4.32473732-17.038685 10.47003182-23.598691 17.95917532-22.274804.3626492-42.871301 7.7933009-59.7288387 20.1942932-26.5357289 19.509208-43.8063993 51.3272837-43.8063993 87.2595259z" fill="url(#a)" opacity=".2"/><g fill-rule="nonzero" transform="translate(51 12)"><path d="m139.604706 17.0504412c-2.184706 0-4.368824-.8311765-6.031177-2.4941177-3.325882-3.3258823-3.325882-8.73705877 0-12.06235289 3.324118-3.32470589 8.736471-3.32588236 12.061765 0 3.325882 3.32588235 3.325882 8.73705879 0 12.06235289-1.662353 1.6629412-3.84647 2.4941177-6.030588 2.4941177zm0-11.17117647c-.677647 0-1.355882.25764705-1.872353.77411764-1.031765 1.03176471-1.031765 2.71117647 0 3.74352943 1.032941 1.0317647 2.710588 1.0323529 3.743529 0 1.031765-1.03176472 1.031765-2.71117649 0-3.74352943-.515882-.51588235-1.194117-.77411764-1.871176-.77411764z" fill="#c4cdd5" opacity=".545118"/><path d="m72.5517647 216.193971c-2.1841176 0-4.3688235-.831765-6.0311765-2.494118-3.3258823-3.325882-3.3258823-8.737059 0-12.062353 3.3247059-3.325294 8.7376471-3.325294 12.062353 0 3.3258823 3.325882 3.3258823 8.737059 0 12.062353-1.662353 1.662941-3.8470588 2.494118-6.0311765 2.494118zm0-11.171177c-.6776471 0-1.3558823.257647-1.8723529.774118-1.0317647 1.031764-1.0317647 2.711176 0 3.743529 1.0329411 1.032353 2.7111764 1.032353 3.7441176 0 1.0317647-1.031765 1.0317647-2.711176 0-3.743529-.5158823-.515883-1.1941176-.774118-1.8717647-.774118z" fill="#c4cdd5" opacity=".545118"/><path d="m221.674118 176.021618c-.752353 0-1.505883-.287059-2.079412-.861177l-3.508824-3.508235-3.508823 3.508235c-1.147647 1.148235-3.011177 1.148235-4.158824 0-1.148823-1.148823-1.148823-3.011176 0-4.159412l5.588236-5.588235c1.147647-1.148235 3.011176-1.148235 4.158823 0l5.588235 5.588235c1.148824 1.148824 1.148824 3.011177 0 4.159412-.573529.57353-1.327058.861177-2.079411.861177z" fill="#dfe3e8"/><path d="m14.2258824 164.815735c-.752353 0-1.5058824-.287059-2.0794118-.861176l-3.50882354-3.508235-3.50882353 3.508235c-1.14764706 1.148235-3.01117647 1.148235-4.15882353 0-1.14882353-1.148824-1.14882353-3.011177 0-4.159412l5.58823529-5.588235c1.14764706-1.148236 3.01117647-1.148236 4.15882351 0l5.5882353 5.588235c1.1488235 1.148824 1.1488235 3.011177 0 4.159412-.5741176.573529-1.3270588.861176-2.0794117.861176z" fill="#d5dbe0"/></g><g filter="url(#b)" transform="translate(86 45)"><g stroke="#919eab"><path d="m46.054386 29.1899561h80.805877c2.906762 0 5.263158 2.3563961 5.263158 5.2631579v89.308728c0 2.906762-2.356396 5.263158-5.263158 5.263158h-80.805877c-2.9067619 0-5.2631579-2.356396-5.2631579-5.263158v-89.308728c0-2.9067618 2.356396-5.2631579 5.2631579-5.2631579z" style="stroke-width:1.2;fill-opacity:.16;fill:#919eab;fill-rule:nonzero;opacity:.24;stroke-dasharray:2 2"/><path d="m28.3275 44.2101754h64.3432895c2.9067618 0 5.2631579 2.3563961 5.2631579 5.2631579v83.4591227c0 2.906762-2.3563961 5.263158-5.2631579 5.263158h-64.3432895c-2.9067618 0-5.2631579-2.356396-5.2631579-5.263158v-83.4591227c0-2.9067618 2.3563961-5.2631579 5.2631579-5.2631579z" style="stroke-width:1.2;fill-opacity:.16;fill:#919eab;fill-rule:nonzero;opacity:.8;stroke-dasharray:2 2"/><path d="m62.2053509 60.8597368h53.5522371c2.906762 0 5.263158 2.3563961 5.263158 5.2631579v69.7121053c0 2.906762-2.356396 5.263158-5.263158 5.263158h-53.5522371c-2.9067619 0-5.2631579-2.356396-5.2631579-5.263158v-69.7121053c0-2.9067618 2.356396-5.2631579 5.2631579-5.2631579z" fill="#919eab" fill-opacity=".48" fill-rule="nonzero" stroke-dasharray="2 2" stroke-width="1.2"/></g><path d="m34.17864 96.361316h86.842105v44.736842h-86.842105z" fill="#c4cdd5"/><g fill="#dfe3e8" stroke="#919eab" stroke-opacity=".48" stroke-width="1.5"><path d="m9.61114035 88.0065351 14.48600875 54.9257459c.8903509 3.694956 4.8613158 6.348201 9.4555263 6.348201h87.8420176c4.594211 0 8.547368-2.671052 9.455526-6.348201l14.486009-54.9257459zm38.48096495 46.2003069c0 2.199167-2.2971053 3.988772-5.1195176 3.988772s-5.1017105-1.780702-5.1017105-3.988772v-31.705395c0-2.199166 2.2792982-3.9887716 5.1017105-3.9887716 1.3008345-.0220962 2.5722233.3881302 3.6148246 1.1663597.9195782.6500029 1.4775582 1.6966279 1.504693 2.8224119zm23.0066666 0c0 2.199167-2.2792982 3.988772-5.1017105 3.988772s-5.110614-1.780702-5.110614-3.988772v-31.705395c0-2.199166 2.2882017-3.9889387 5.110614-3.9889387 1.2825116-.0094954 2.5330731.4000635 3.5614035 1.1665268.9162069.6519109 1.4707214 1.6982269 1.4957895 2.8224119zm23.0155702 0c0 2.199167-2.2882017 3.988772-5.110614 3.988772s-5.1017106-1.780702-5.1017106-3.988772v-31.705395c0-2.199166 2.2792983-3.9887716 5.1017106-3.9887716 1.3006341-.0207507 2.5715994.3893391 3.6148245 1.1663597.9162069.6519109 1.4707214 1.6982269 1.4957895 2.8224119zm23.0155699 0c0 2.199167-2.279298 3.988772-5.10171 3.988772-2.822413 0-5.119518-1.780702-5.119518-3.988772v-31.705395c0-2.199166 2.297105-3.9887716 5.119518-3.9887716 1.297699-.019449 2.565434.3906084 3.605921 1.1663597.916207.6519109 1.470721 1.6982269 1.495789 2.8224119z"/><circle cx="68.579079" cy="8.605044" r="8.289167"/><path d="m27.6140351 82.370614c-1.7118589.7625036-3.7205255.3260579-4.9616166-1.0780666-1.2410912-1.4041244-1.4275692-3.4511838-.4606203-5.0564509l42.9594299-70.19526317c.7952293-1.31053793 2.2292152-2.09727512 3.761789-2.06385529s2.9309011.88191943 3.6682456 2.22587719c.7373445 1.34395777.7016859 2.97919456-.0935434 4.28973247l-42.9505263 70.1952632c-.4539828.7443076-1.1251739 1.3315998-1.9231579 1.6827631z"/><circle cx="86.36829" cy="8.605044" r="8.289167"/><path d="m127.377851 82.370614c1.711859.7625036 3.720525.3260579 4.961617-1.0780666 1.241091-1.4041244 1.427569-3.4511838.46062-5.0564509l-42.9594301-70.19526317c-1.229318-2.02591611-3.8682067-2.67168645-5.8941228-1.44236842s-2.6716865 3.8682067-1.4423684 5.89412279l42.9505263 70.1952632c.453983.7443076 1.125174 1.3315998 1.923158 1.6827631z"/><rect height="15.091447" rx="7.545724" width="154.075219" x=".431623" y="72.915088"/></g></g></g></svg>