<svg height="20" viewBox="0 0 28 20" width="28" xmlns="http://www.w3.org/2000/svg" xmlns:xlink="http://www.w3.org/1999/xlink"><defs><rect id="a" height="20" rx="3" width="28"/><circle id="b" cx="4.667" cy="4.667" r="4.667"/><mask id="c" fill="#fff"><use fill="#fff" fill-rule="evenodd" xlink:href="#a"/></mask><mask id="d" fill="#fff"><use fill="#fff" fill-rule="evenodd" xlink:href="#b"/></mask></defs><g fill="none" fill-rule="evenodd"><use fill="#fff" xlink:href="#a"/><g mask="url(#c)"><g transform="translate(9.333 5.333)"><use fill="#e01b41" xlink:href="#b"/><path d="m0 5.33333333c1.3333333 1.24999998 3.33333333 2 4.66666667 0 1.33333333-2 4-2.00000007 4.66666666 0 .66666667 2.00000008 0 4 0 4h-9.33333333s-1.3333333-5.24999997 0-4z" fill="#0e4b9c" mask="url(#d)"/></g></g><path d="m22.7969332 12.7695107.5719411.3302103c.1609246.0929099.2154196.299795.1208609.4635755l-1.6589623 2.873407c-.094175.1631158-.294092.2240023-.4618986.1271192l-.5719411-.3302104c-.1609246-.0929099-.2154195-.299795-.1208608-.4635755l1.6589622-2.8734069c.094175-.1631159.2940921-.2240024.4618986-.1271192zm-17.13196782.1271192 1.65896225 2.8734069c.09417497.1631158.04694569.3666924-.12086083.4635755l-.57194114.3302104c-.16092456.0929098-.36733986.0366613-.46189857-.1271192l-1.65896225-2.873407c-.09417498-.1631158-.04694569-.3666923.12086082-.4635755l.57194114-.3302103c.16092456-.0929099.36733986-.0366613.46189858.1271192zm15.39991702-1.1271192.5719411.3302103c.1609246.0929099.2154196.299795.1208609.4635755l-1.6589623 2.873407c-.094175.1631158-.2940921.2240023-.4618986.1271192l-.5719411-.3302104c-.1609246-.0929099-.2154195-.299795-.1208608-.4635755l1.6589622-2.8734069c.094175-.1631159.2940921-.2240024.4618986-.1271192zm-13.66786622.1271192 1.65896225 2.8734069c.09417498.1631158.04694569.3666924-.12086082.4635755l-.57194114.3302104c-.16092456.0929098-.36733986.0366613-.46189858-.1271192l-1.65896225-2.873407c-.09417497-.1631158-.04694569-.3666923.12086083-.4635755l.57194114-.3302103c.16092456-.0929099.36733986-.0366613.46189857.1271192zm.96616029-7.46045256.57194114.33021037c.16092456.09290984.21541954.299795.12086082.4635755l-1.65896225 2.87340691c-.09417497.16311584-.29409206.22400234-.46189857.1271192l-.57194114-.33021036c-.16092456-.09290984-.21541954-.29979501-.12086083-.46357551l1.65896225-2.8734069c.09417498-.16311584.29409206-.22400235.46189858-.12711921zm11.73554563.12711921 1.6589623 2.8734069c.0941749.16311584.0469456.36669237-.1208609.46357551l-.5719411.33021036c-.1609246.09290985-.3673399.0366613-.4618986-.1271192l-1.6589622-2.87340691c-.094175-.16311584-.0469457-.36669236.1208608-.4635755l.5719411-.33021037c.1609246-.09290984.3673399-.03666129.4618986.12711921zm-13.46759644-1.12711921.57194114.33021037c.16092456.09290984.21541954.299795.12086083.4635755l-1.65896225 2.87340691c-.09417498.16311584-.29409206.22400234-.46189858.1271192l-.57194114-.33021036c-.16092456-.09290984-.21541954-.29979501-.12086082-.46357551l1.65896225-2.8734069c.09417497-.16311584.29409206-.22400235.46189857-.12711921zm15.19964724.12711921 1.6589623 2.8734069c.0941749.16311584.0469457.36669237-.1208609.46357551l-.5719411.33021036c-.1609246.09290985-.3673399.0366613-.4618986-.1271192l-1.6589622-2.87340691c-.094175-.16311584-.0469457-.36669236.1208608-.4635755l.5719411-.33021037c.1609246-.09290984.3673399-.03666129.4618986.12711921z" fill="#262626" mask="url(#c)" opacity=".75"/></g></svg>