<svg height="20" viewBox="0 0 28 20" width="28" xmlns="http://www.w3.org/2000/svg" xmlns:xlink="http://www.w3.org/1999/xlink"><defs><rect id="a" height="20" rx="3" width="28"/><linearGradient id="b" x1="50%" x2="50%" y1="0%" y2="100%"><stop offset="0" stop-color="#fff"/><stop offset="1" stop-color="#f0f0f0"/></linearGradient><path id="c" d="m10 6.66666667c.3681898 0 .6666667.29847683.6666667.66666666 0 .36818984-.2984769.66666667-.6666667.66666667-.36818983 0-.66666667-.29847683-.66666667-.66666667 0-.36818983.29847684-.66666666.66666667-.66666666zm-2.66666667 0c.36818984 0 .66666667.29847683.66666667.66666666 0 .36818984-.29847683.66666667-.66666667.66666667-.36818983 0-.66666666-.29847683-.66666666-.66666667 0-.36818983.29847683-.66666666.66666666-.66666666zm-2.66666666 0c.36818983 0 .66666666.29847683.66666666.66666666 0 .36818984-.29847683.66666667-.66666666.66666667-.36818984 0-.66666667-.29847683-.66666667-.66666667 0-.36818983.29847683-.66666666.66666667-.66666666zm-2.66666667 0c.36818983 0 .66666667.29847683.66666667.66666666 0 .36818984-.29847684.66666667-.66666667.66666667s-.66666667-.29847683-.66666667-.66666667c0-.36818983.29847684-.66666666.66666667-.66666666zm1.33333333-1.33333334c.36818984 0 .66666667.29847684.66666667.66666667s-.29847683.66666667-.66666667.66666667c-.36818983 0-.66666666-.29847684-.66666666-.66666667s.29847683-.66666667.66666666-.66666667zm2.66666667 0c.36818983 0 .66666667.29847684.66666667.66666667s-.29847684.66666667-.66666667.66666667-.66666667-.29847684-.66666667-.66666667.29847684-.66666667.66666667-.66666667zm2.66666667 0c.36818983 0 .66666666.29847684.66666666.66666667s-.29847683.66666667-.66666666.66666667c-.36818984 0-.66666667-.29847684-.66666667-.66666667s.29847683-.66666667.66666667-.66666667zm1.33333333-1.33333333c.3681898 0 .6666667.29847683.6666667.66666667 0 .36818983-.2984769.66666666-.6666667.66666666-.36818983 0-.66666667-.29847683-.66666667-.66666666 0-.36818984.29847684-.66666667.66666667-.66666667zm-2.66666667 0c.36818984 0 .66666667.29847683.66666667.66666667 0 .36818983-.29847683.66666666-.66666667.66666666-.36818983 0-.66666666-.29847683-.66666666-.66666666 0-.36818984.29847683-.66666667.66666666-.66666667zm-2.66666666 0c.36818983 0 .66666666.29847683.66666666.66666667 0 .36818983-.29847683.66666666-.66666666.66666666-.36818984 0-.66666667-.29847683-.66666667-.66666666 0-.36818984.29847683-.66666667.66666667-.66666667zm-2.66666667 0c.36818983 0 .66666667.29847683.66666667.66666667 0 .36818983-.29847684.66666666-.66666667.66666666s-.66666667-.29847683-.66666667-.66666666c0-.36818984.29847684-.66666667.66666667-.66666667zm1.33333333-1.33333333c.36818984 0 .66666667.29847683.66666667.66666666 0 .36818984-.29847683.66666667-.66666667.66666667-.36818983 0-.66666666-.29847683-.66666666-.66666667 0-.36818983.29847683-.66666666.66666666-.66666666zm2.66666667 0c.36818983 0 .66666667.29847683.66666667.66666666 0 .36818984-.29847684.66666667-.66666667.66666667s-.66666667-.29847683-.66666667-.66666667c0-.36818983.29847684-.66666666.66666667-.66666666zm2.66666667 0c.36818983 0 .66666666.29847683.66666666.66666666 0 .36818984-.29847683.66666667-.66666666.66666667-.36818984 0-.66666667-.29847683-.66666667-.66666667 0-.36818983.29847683-.66666666.66666667-.66666666zm-6.66666667-1.33333334c.36818983 0 .66666667.29847684.66666667.66666667s-.29847684.66666667-.66666667.66666667-.66666667-.29847684-.66666667-.66666667.29847684-.66666667.66666667-.66666667zm2.66666667 0c.36818983 0 .66666666.29847684.66666666.66666667s-.29847683.66666667-.66666666.66666667c-.36818984 0-.66666667-.29847684-.66666667-.66666667s.29847683-.66666667.66666667-.66666667zm2.66666666 0c.36818984 0 .66666667.29847684.66666667.66666667s-.29847683.66666667-.66666667.66666667c-.36818983 0-.66666666-.29847684-.66666666-.66666667s.29847683-.66666667.66666666-.66666667zm2.66666667 0c.3681898 0 .6666667.29847684.6666667.66666667s-.2984769.66666667-.6666667.66666667c-.36818983 0-.66666667-.29847684-.66666667-.66666667s.29847684-.66666667.66666667-.66666667z"/><filter id="d" height="130%" width="110.7%" x="-5.4%" y="-7.5%"><feOffset dy="1" in="SourceAlpha" result="shadowOffsetOuter1"/><feColorMatrix in="shadowOffsetOuter1" values="0 0 0 0 0   0 0 0 0 0   0 0 0 0 0  0 0 0 0.06 0"/></filter><mask id="e" fill="#fff"><use fill="#fff" fill-rule="evenodd" xlink:href="#a"/></mask></defs><g fill="none" fill-rule="evenodd"><use fill="#fff" xlink:href="#a"/><path d="m28 18.6666667v1.3333333h-28v-1.3333333zm0-2.6666667v1.3333333h-28v-1.3333333zm0-2.6666667v1.3333334h-28v-1.3333334zm0-2.6666666v1.3333333h-28v-1.3333333zm0-2.6666667v1.33333333h-28v-1.33333333zm0-2.66666667v1.33333334h-28v-1.33333334zm0-2.66666666v1.33333333h-28v-1.33333333zm0-2.66666667v1.33333333h-28v-1.33333333z" fill="#d02f44" mask="url(#e)"/><path d="m0 0h12v9.333h-12z" fill="#46467f" mask="url(#e)"/><g mask="url(#e)"><use fill="#000" filter="url(#d)" xlink:href="#c"/><use fill="url(#b)" xlink:href="#c"/></g></g></svg>